<svg width="134" height="36" viewBox="0 0 134 36" fill="none" xmlns="http://www.w3.org/2000/svg">
<path d="M18.396 16.476C18.396 20.388 18.612 22.344 19.044 22.344C19.476 22.344 20.052 21.852 20.772 20.868C21.516 19.86 22.236 18.576 22.932 17.016C23.652 15.432 24.084 14.64 24.228 14.64C24.396 14.64 24.48 14.736 24.48 14.928C24.48 15.6 24.072 16.824 23.256 18.6C21.504 22.32 19.932 24.18 18.54 24.18C18.012 24.18 17.532 24.12 17.1 24C16.668 23.856 16.404 23.724 16.308 23.604C16.068 23.316 15.948 22.26 15.948 20.436C15.948 16.116 16.092 12.612 16.38 9.924C14.988 11.292 13.716 12.852 12.564 14.604C13.068 16.524 13.32 18.192 13.32 19.608C13.32 21 13.044 22.08 12.492 22.848C11.964 23.616 11.292 24 10.476 24C9.492 24 9 23.052 9 21.156C9 19.86 9.516 18.144 10.548 16.008C10.068 14.328 9.372 12.684 8.46 11.076C8.076 13.26 7.488 15.492 6.696 17.772C5.904 20.052 5.088 21.756 4.248 22.884C3.408 23.988 2.412 24.54 1.26 24.54C0.42 24.54 0 24.216 0 23.568C0 23.04 0.18 22.668 0.54 22.452C0.9 22.236 1.32 22.08 1.8 21.984C2.304 21.864 2.628 21.732 2.772 21.588C3.708 20.604 4.584 18.924 5.4 16.548C6.24 14.172 6.852 11.736 7.236 9.24C6.204 7.896 5.688 6.9 5.688 6.252C5.688 5.58 5.856 4.992 6.192 4.488C6.552 3.984 7.128 3.732 7.92 3.732C8.16 3.732 8.364 4.044 8.532 4.668C8.7 5.268 8.784 5.904 8.784 6.576C10.248 8.712 11.364 10.92 12.132 13.2C13.476 10.992 15.012 8.952 16.74 7.08C17.484 2.544 18.348 0.275999 19.332 0.275999C19.668 0.275999 20.016 0.527999 20.376 1.032C20.76 1.536 20.952 2.052 20.952 2.58C20.952 4.212 20.244 5.868 18.828 7.548C18.54 9.588 18.396 12.564 18.396 16.476ZM10.908 17.556C10.332 18.828 10.044 19.968 10.044 20.976C10.044 21.96 10.164 22.452 10.404 22.452C10.644 22.452 10.824 22.164 10.944 21.588C11.064 20.988 11.124 20.364 11.124 19.716C11.124 19.068 11.052 18.348 10.908 17.556ZM34.4652 24.18C33.5292 24.18 32.8212 23.988 32.3412 23.604C32.1732 23.436 32.0892 23.016 32.0892 22.344C32.0892 21.648 32.1132 20.724 32.1612 19.572C31.5372 21.132 30.9132 22.296 30.2892 23.064C29.6892 23.808 28.9092 24.18 27.9492 24.18C26.9892 24.18 26.1492 23.736 25.4292 22.848C24.7092 21.936 24.3492 20.52 24.3492 18.6C24.3492 16.656 24.8892 14.94 25.9692 13.452C27.0732 11.964 28.5132 11.22 30.2892 11.22C31.0572 11.22 31.9212 11.724 32.8812 12.732C33.0732 12.468 33.4092 12.156 33.8892 11.796C34.3932 11.412 34.8132 11.22 35.1492 11.22C35.5092 11.22 35.6892 11.676 35.6892 12.588C35.6892 12.828 35.6172 13.296 35.4732 13.992C35.3532 14.688 35.2092 15.192 35.0412 15.504C34.8252 16.056 34.7172 18.012 34.7172 21.372C34.7172 22.02 34.7892 22.344 34.9332 22.344C35.3412 22.32 35.9052 21.816 36.6252 20.832C37.3452 19.824 38.0532 18.54 38.7492 16.98C39.4692 15.42 39.9012 14.64 40.0452 14.64C40.2132 14.64 40.2972 14.736 40.2972 14.928C40.2972 15.6 39.9492 16.668 39.2532 18.132C37.3572 22.164 35.7612 24.18 34.4652 24.18ZM30.0732 12.66C29.4012 12.66 28.6812 13.164 27.9132 14.172C27.1692 15.156 26.7972 16.32 26.7972 17.664C26.7972 19.008 26.9892 20.112 27.3732 20.976C27.7812 21.84 28.3092 22.272 28.9572 22.272C29.7492 22.272 30.9132 20.292 32.4492 16.332C32.4732 16.14 32.4972 15.816 32.5212 15.36C32.5692 14.88 32.6052 14.52 32.6292 14.28C32.4132 13.896 32.0292 13.536 31.4772 13.2C30.9492 12.84 30.4812 12.66 30.0732 12.66ZM47.2745 18.492C46.5305 20.46 45.8345 21.9 45.1865 22.812C44.5625 23.724 43.7345 24.18 42.7025 24.18C41.6705 24.18 40.7945 23.736 40.0745 22.848C39.3785 21.96 39.0305 20.544 39.0305 18.6C39.0305 16.656 39.5705 14.94 40.6505 13.452C41.7545 11.964 43.1945 11.22 44.9705 11.22C45.3305 11.22 45.7625 11.376 46.2665 11.688C46.7705 11.976 47.2145 12.336 47.5985 12.768C47.6705 12.528 48.0185 12.156 48.6425 11.652C49.2665 11.124 49.7465 10.86 50.0825 10.86C50.4425 10.86 50.6225 11.376 50.6225 12.408C50.6225 13.44 50.4065 14.352 49.9745 15.144C49.7345 16.752 49.6025 18.24 49.5785 19.608C51.9305 16.632 53.1785 15.06 53.3225 14.892C53.4905 14.724 53.6345 14.64 53.7545 14.64C53.9945 14.64 54.1145 14.76 54.1145 15C54.1145 15.144 54.0665 15.3 53.9705 15.468C53.2025 16.596 51.6905 18.576 49.4345 21.408C49.2905 24.264 49.1945 26.208 49.1465 27.24C49.0265 30.288 48.5945 32.424 47.8505 33.648C47.1305 34.896 45.8345 35.52 43.9625 35.52C43.1465 35.52 42.3785 35.268 41.6585 34.764C40.9625 34.284 40.6145 33.432 40.6145 32.208C40.6145 31.008 41.0705 29.772 41.9825 28.5C42.9185 27.228 44.6105 25.272 47.0585 22.632L47.2745 18.492ZM44.7545 12.516C44.0825 12.516 43.3625 13.044 42.5945 14.1C41.8505 15.132 41.4785 16.332 41.4785 17.7C41.4785 19.044 41.6705 20.148 42.0545 21.012C42.4625 21.852 42.9665 22.272 43.5665 22.272C44.1665 22.272 44.7425 21.78 45.2945 20.796C45.8465 19.812 46.5545 18.12 47.4185 15.72C47.4665 14.904 47.4905 14.388 47.4905 14.172C47.2985 13.812 46.9025 13.452 46.3025 13.092C45.7025 12.708 45.1865 12.516 44.7545 12.516ZM46.9505 24.324C44.2145 27.276 42.8465 29.64 42.8465 31.416C42.8465 32.232 42.9905 32.904 43.2785 33.432C43.5665 33.96 43.9625 34.224 44.4665 34.224C45.2345 34.224 45.7745 33.804 46.0865 32.964C46.3985 32.124 46.6265 30.42 46.7705 27.852L46.9505 24.324ZM54.657 6.396C54.657 5.964 54.885 5.592 55.341 5.28C55.797 4.968 56.205 4.812 56.565 4.812C57.213 4.812 57.537 5.184 57.537 5.928C57.537 6.672 57.345 7.32 56.961 7.872C56.577 8.4 56.037 8.664 55.341 8.664C54.885 8.664 54.657 7.908 54.657 6.396ZM55.701 24.18C54.765 24.18 54.057 23.988 53.577 23.604C53.409 23.436 53.325 22.836 53.325 21.804C53.325 20.772 53.397 19.056 53.541 16.656C53.709 14.232 53.853 12.924 53.973 12.732C54.093 12.54 54.465 12.18 55.089 11.652C55.713 11.124 56.193 10.86 56.529 10.86C56.889 10.86 57.069 11.316 57.069 12.228C57.069 12.468 56.997 12.936 56.853 13.632C56.733 14.328 56.589 14.832 56.421 15.144C56.109 15.936 55.953 18.012 55.953 21.372C55.953 22.02 56.025 22.344 56.169 22.344C56.577 22.32 57.141 21.816 57.861 20.832C58.581 19.824 59.289 18.54 59.985 16.98C60.705 15.42 61.137 14.64 61.281 14.64C61.449 14.64 61.533 14.736 61.533 14.928C61.533 15.6 61.185 16.668 60.489 18.132C58.593 22.164 56.997 24.18 55.701 24.18ZM66.962 15.252L67.25 13.416C67.25 13.152 67.166 12.912 66.998 12.696C66.83 12.48 66.614 12.372 66.35 12.372C65.462 12.372 64.694 13.044 64.046 14.388C63.398 15.708 63.074 16.98 63.074 18.204C63.074 19.428 63.326 20.424 63.83 21.192C64.334 21.936 64.946 22.308 65.666 22.308C66.41 22.308 67.07 22.14 67.646 21.804C68.222 21.468 68.75 20.988 69.23 20.364C70.238 19.044 71.102 17.544 71.822 15.864C72.014 15.432 72.158 15.12 72.254 14.928C72.374 14.736 72.494 14.64 72.614 14.64C72.758 14.64 72.83 14.736 72.83 14.928C72.83 15.72 72.554 16.668 72.002 17.772C71.45 18.876 70.982 19.728 70.598 20.328C70.238 20.904 69.77 21.516 69.194 22.164C67.994 23.508 66.494 24.18 64.694 24.18C63.326 24.18 62.282 23.7 61.562 22.74C60.866 21.756 60.518 20.712 60.518 19.608C60.518 16.872 61.106 14.796 62.282 13.38C63.482 11.94 64.994 11.22 66.818 11.22C67.586 11.22 68.186 11.424 68.618 11.832C69.074 12.216 69.302 12.66 69.302 13.164C69.302 14.1 69.134 14.796 68.798 15.252C68.462 15.708 68.054 15.936 67.574 15.936C67.166 15.936 66.962 15.708 66.962 15.252ZM88.9706 23.064C90.2666 23.064 91.4066 22.608 92.3906 21.696C93.3986 20.784 93.9026 19.74 93.9026 18.564C93.9026 17.364 93.5306 16.26 92.7866 15.252C91.9706 15.66 91.1666 15.864 90.3746 15.864C88.5266 15.864 87.6026 15.288 87.6026 14.136C87.6026 13.8 87.8306 13.5 88.2866 13.236C88.7426 12.948 89.3906 12.804 90.2306 12.804C91.0946 12.804 92.0306 13.056 93.0386 13.56C93.9986 12.528 94.4786 11.364 94.4786 10.068C94.4786 8.46 93.7706 7.188 92.3546 6.252C90.9626 5.292 89.4626 4.812 87.8546 4.812C87.5186 4.812 87.2666 4.824 87.0986 4.848C87.0746 5.544 87.0146 6.66 86.9186 8.196C86.7746 10.5 86.7026 14.016 86.7026 18.744C86.7026 20.568 86.5706 21.48 86.3066 21.48C85.2746 21.48 84.6146 21.336 84.3266 21.048C84.0386 20.76 83.8946 19.932 83.8946 18.564C83.8946 18.228 83.9546 16.848 84.0746 14.424C84.2186 12 84.2906 10.044 84.2906 8.556C84.2906 7.068 84.3386 5.976 84.4346 5.28C83.1626 5.712 82.4786 6.408 82.3826 7.368C82.2866 8.16 82.1066 8.712 81.8426 9.024C81.6026 9.336 81.2666 9.492 80.8346 9.492C80.4266 9.492 80.1506 9.384 80.0066 9.168C79.8626 8.928 79.7906 8.688 79.7906 8.448C79.7906 6.36 81.4106 4.92 84.6506 4.128C85.0586 2.496 85.7066 1.68 86.5946 1.68C86.9546 1.68 87.1346 2.352 87.1346 3.696C87.7586 3.624 88.5266 3.588 89.4386 3.588C90.3746 3.588 91.4426 3.768 92.6426 4.128C93.8426 4.464 94.8866 5.076 95.7746 5.964C96.6626 6.828 97.1066 7.8 97.1066 8.88C97.1066 10.896 96.1346 12.708 94.1906 14.316C95.5346 15.372 96.2066 16.632 96.2066 18.096C96.2066 19.56 95.7506 20.772 94.8386 21.732C93.1346 23.484 90.8546 24.36 87.9986 24.36C86.0546 24.36 84.6626 24.228 83.8226 23.964C83.6546 23.916 83.4746 23.796 83.2826 23.604C83.1146 23.388 83.0306 23.124 83.0306 22.812C83.0306 22.308 83.5226 22.056 84.5066 22.056C84.8186 22.056 85.5026 22.224 86.5586 22.56C87.6146 22.896 88.4186 23.064 88.9706 23.064ZM92.0306 14.46C91.3106 13.86 90.6266 13.56 89.9786 13.56C89.3546 13.56 89.0426 13.692 89.0426 13.956C89.0426 14.508 89.6306 14.784 90.8066 14.784C91.2386 14.784 91.6466 14.676 92.0306 14.46ZM109.234 12.66C109.234 12.372 109.042 12.132 108.658 11.94C108.274 11.724 107.83 11.616 107.326 11.616C106.822 11.616 106.33 11.736 105.85 11.976C106.666 12.72 107.566 13.092 108.55 13.092C108.766 13.092 108.934 13.044 109.054 12.948C109.174 12.828 109.234 12.732 109.234 12.66ZM110.926 6.648L110.998 5.676C110.998 5.148 110.794 4.656 110.386 4.2C110.002 3.72 109.474 3.48 108.802 3.48C107.65 3.48 106.606 3.996 105.67 5.028C104.734 6.06 104.266 7.164 104.266 8.34C104.266 9.492 104.566 10.464 105.166 11.256C106.198 10.8 107.158 10.572 108.046 10.572C108.934 10.572 109.642 10.728 110.17 11.04C110.722 11.328 110.998 11.772 110.998 12.372C110.998 12.972 110.698 13.416 110.098 13.704C109.522 13.992 108.874 14.136 108.154 14.136C106.81 14.136 105.586 13.764 104.482 13.02C103.906 13.62 103.438 14.328 103.078 15.144C102.742 15.96 102.574 16.716 102.574 17.412C102.574 18.828 103.03 20.124 103.942 21.3C104.854 22.476 106.066 23.064 107.578 23.064C110.746 23.064 113.326 20.976 115.318 16.8C115.99 15.432 116.41 14.748 116.578 14.748C116.77 14.748 116.866 14.844 116.866 15.036C116.866 15.996 116.266 17.448 115.066 19.392C113.89 21.312 112.606 22.656 111.214 23.424C109.846 24.168 108.154 24.54 106.138 24.54C104.146 24.54 102.574 23.952 101.422 22.776C100.27 21.6 99.6936 20.136 99.6936 18.384C99.6936 17.232 100.03 16.128 100.702 15.072C101.398 13.992 102.286 13.068 103.366 12.3C102.238 11.364 101.674 10.236 101.674 8.916C101.674 7.092 102.382 5.556 103.798 4.308C105.214 3.036 106.93 2.4 108.946 2.4C110.266 2.4 111.37 2.748 112.258 3.444C113.17 4.116 113.626 4.92 113.626 5.856C113.626 6.384 113.47 6.816 113.158 7.152C112.846 7.488 112.45 7.656 111.97 7.656C111.274 7.656 110.926 7.32 110.926 6.648ZM125.813 12.66C125.813 12.372 125.621 12.132 125.237 11.94C124.853 11.724 124.409 11.616 123.905 11.616C123.401 11.616 122.909 11.736 122.429 11.976C123.245 12.72 124.145 13.092 125.129 13.092C125.345 13.092 125.513 13.044 125.633 12.948C125.753 12.828 125.813 12.732 125.813 12.66ZM127.505 6.648L127.577 5.676C127.577 5.148 127.373 4.656 126.965 4.2C126.581 3.72 126.053 3.48 125.381 3.48C124.229 3.48 123.185 3.996 122.249 5.028C121.313 6.06 120.845 7.164 120.845 8.34C120.845 9.492 121.145 10.464 121.745 11.256C122.777 10.8 123.737 10.572 124.625 10.572C125.513 10.572 126.221 10.728 126.749 11.04C127.301 11.328 127.577 11.772 127.577 12.372C127.577 12.972 127.277 13.416 126.677 13.704C126.101 13.992 125.453 14.136 124.733 14.136C123.389 14.136 122.165 13.764 121.061 13.02C120.485 13.62 120.017 14.328 119.657 15.144C119.321 15.96 119.153 16.716 119.153 17.412C119.153 18.828 119.609 20.124 120.521 21.3C121.433 22.476 122.645 23.064 124.157 23.064C127.325 23.064 129.905 20.976 131.897 16.8C132.569 15.432 132.989 14.748 133.157 14.748C133.349 14.748 133.445 14.844 133.445 15.036C133.445 15.996 132.845 17.448 131.645 19.392C130.469 21.312 129.185 22.656 127.793 23.424C126.425 24.168 124.733 24.54 122.717 24.54C120.725 24.54 119.153 23.952 118.001 22.776C116.849 21.6 116.273 20.136 116.273 18.384C116.273 17.232 116.609 16.128 117.281 15.072C117.977 13.992 118.865 13.068 119.945 12.3C118.817 11.364 118.253 10.236 118.253 8.916C118.253 7.092 118.961 5.556 120.377 4.308C121.793 3.036 123.509 2.4 125.525 2.4C126.845 2.4 127.949 2.748 128.837 3.444C129.749 4.116 130.205 4.92 130.205 5.856C130.205 6.384 130.049 6.816 129.737 7.152C129.425 7.488 129.029 7.656 128.549 7.656C127.853 7.656 127.505 7.32 127.505 6.648Z" fill="black"/>
</svg>
